<svg width="357" height="352" viewBox="0 0 357 352" fill="none" xmlns="http://www.w3.org/2000/svg">
<path d="M41.8949 192.877C45.037 192.877 47.1318 190.285 47.1318 187.692C47.1318 184.582 44.5134 182.508 41.8949 182.508C39.2764 182.508 36.658 184.582 36.658 187.692C36.658 190.285 39.2764 192.877 41.8949 192.877Z" fill="#4DC4E3"/>
<path d="M10.4736 324.035C10.4736 335.441 19.9 344.774 31.4212 344.774H239.327C250.848 344.774 260.274 335.441 260.274 324.035V223.974C260.274 212.568 250.848 203.236 239.327 203.236H136.683C130.923 203.236 126.209 198.57 126.209 192.867V185.09C126.209 173.684 116.783 164.352 105.262 164.352H31.4212C19.9 164.352 10.4736 173.684 10.4736 185.09V324.035ZM31.4212 174.721H105.262C111.022 174.721 115.735 179.387 115.735 185.09V192.867C115.735 204.273 125.162 213.605 136.683 213.605H239.327C245.087 213.605 249.8 218.271 249.8 223.974V324.035C249.8 329.738 245.087 334.404 239.327 334.404H31.4212C25.6606 334.404 20.9474 329.738 20.9474 324.035V213.605H91.122C94.2642 213.605 96.3589 211.531 96.3589 208.42C96.3589 205.309 94.2642 203.236 91.122 203.236H20.9474V185.09C20.9474 179.387 25.6606 174.721 31.4212 174.721Z" fill="#4DC4E3"/>
<path d="M43.9899 252.513V289.841C43.9899 292.952 46.0847 295.026 49.2268 295.026H221.521C224.663 295.026 226.758 292.952 226.758 289.841V252.513C226.758 249.402 224.663 247.328 221.521 247.328H49.2268C46.0847 247.328 43.9899 249.402 43.9899 252.513ZM54.4637 257.697H216.284V284.657H54.4637V257.697Z" fill="#4DC4E3"/>
<path d="M62.8427 192.877C65.9848 192.877 68.0796 190.285 68.0796 187.692C68.0796 185.1 65.9848 182.508 62.8427 182.508C59.7005 182.508 57.6057 185.1 57.6057 187.692C57.6057 190.285 59.7005 192.877 62.8427 192.877Z" fill="#4DC4E3"/>
<path d="M83.7901 192.877C86.4086 192.877 89.027 190.803 89.027 187.692C89.027 184.582 86.4086 182.508 83.7901 182.508C81.1716 182.508 78.5532 184.582 78.5532 187.692C78.5532 190.285 81.1716 192.877 83.7901 192.877Z" fill="#4DC4E3"/>
<path d="M297.98 50.3023C297.457 50.3023 296.933 50.3023 296.409 50.3023C291.696 25.935 270.225 7.78906 244.564 7.78906C223.092 7.78906 204.24 20.7504 195.861 39.9332C174.389 32.6749 149.252 47.71 149.776 73.6327C133.018 76.7435 120.449 91.2602 120.449 108.888C120.449 128.589 136.683 144.661 156.584 144.661H169.152C172.294 144.661 174.389 142.587 174.389 139.476C174.389 136.366 172.294 134.292 169.152 134.292H157.107C142.968 134.292 131.447 122.886 131.447 108.888C131.447 95.4078 142.444 84.0018 156.06 83.4834C159.202 83.4834 161.297 80.3726 160.773 77.7804C157.631 54.4499 180.673 42.5255 196.384 51.8577C199.526 53.413 203.192 51.8577 204.24 48.7469C209.476 31.1195 226.235 18.6766 244.564 18.6766C266.559 18.6766 284.888 35.2671 286.459 56.5237C286.459 58.0791 287.506 59.116 288.554 60.1529C289.601 61.1898 291.172 61.1898 292.743 61.1898C294.314 61.1898 295.885 60.6714 297.98 60.6714C318.404 60.6714 335.162 77.2619 335.162 97.4816C335.162 117.701 318.404 134.292 297.98 134.292H296.409C293.267 134.292 291.172 136.366 291.172 139.476C291.172 142.587 293.267 144.661 296.409 144.661H297.98C324.165 144.661 345.636 123.404 345.636 97.4816C345.636 71.5589 324.165 50.3023 297.98 50.3023Z" fill="#4DC4E3"/>
<path d="M264.987 54.4511C266.035 57.0434 268.653 58.5988 271.272 58.0803C273.89 57.0434 275.461 54.4511 274.937 51.8589C270.748 38.379 258.179 29.0469 244.04 29.0469C240.897 29.0469 238.803 31.1207 238.803 34.2314C238.803 37.3421 240.897 39.416 244.04 39.416C253.99 38.8975 262.369 45.1189 264.987 54.4511Z" fill="#4DC4E3"/>
<path d="M182.768 133.795C182.768 161.273 205.287 183.567 233.042 183.567C260.798 183.567 283.317 161.273 283.317 133.795C283.317 106.317 260.798 84.0234 233.042 84.0234C205.287 84.0234 182.768 106.317 182.768 133.795ZM272.843 133.795C272.843 155.57 255.037 173.198 233.042 173.198C211.047 173.198 193.242 155.57 193.242 133.795C193.242 112.02 211.047 94.3925 233.042 94.3925C255.037 94.3925 272.843 112.02 272.843 133.795Z" fill="#4DC4E3"/>
<path d="M229.376 107.835L213.665 123.389C211.571 125.463 211.571 128.573 213.665 130.647C215.76 132.721 218.902 132.721 220.997 130.647L227.805 123.907V156.051C227.805 159.162 229.9 161.236 233.042 161.236C236.184 161.236 238.279 159.162 238.279 156.051V124.426L245.087 131.166C247.182 133.239 250.324 133.239 252.419 131.166C254.513 129.092 254.513 125.981 252.419 123.907L236.708 108.354C234.613 106.28 231.471 106.28 229.376 107.835Z" fill="#4DC4E3"/>
<path d="M280.698 266.519H300.075C314.738 266.519 326.259 255.113 326.259 240.596V180.456L336.209 190.306C338.304 192.38 341.446 192.38 343.541 190.306C345.636 188.232 345.636 185.122 343.541 183.048L324.688 164.383C322.594 162.31 319.451 162.31 317.357 164.383L298.504 182.529C296.409 184.603 296.409 187.714 298.504 189.788C300.598 191.862 303.741 191.862 305.835 189.788L315.786 179.937V240.596C315.786 249.41 308.978 256.15 300.075 256.15H280.698C277.556 256.15 275.461 258.224 275.461 261.334C275.461 264.445 277.556 266.519 280.698 266.519Z" fill="#4DC4E3"/>
<path d="M70.1742 52.9081H100.025C103.167 52.9081 105.261 50.8343 105.261 47.7236C105.261 44.6129 103.167 42.5391 100.025 42.5391H70.1742C55.5109 42.5391 43.9897 53.9451 43.9897 68.4618V127.566L34.0395 117.715C31.9448 115.641 28.8026 115.641 26.7079 117.715C24.6131 119.789 24.6131 122.899 26.7079 124.973L45.5607 143.638C47.6555 145.711 50.7976 145.711 52.8924 143.638L71.7453 124.973C73.84 122.899 73.84 119.789 71.7453 117.715C69.6505 115.641 66.5084 115.641 64.4136 117.715L54.4635 127.566V68.4618C54.4635 59.648 61.2715 52.9081 70.1742 52.9081Z" fill="#4DC4E3"/>
</svg>
