<svg width="436" height="371" viewBox="0 0 436 371" fill="none" xmlns="http://www.w3.org/2000/svg">
<g clip-path="url(#clip0_460_6836)">
<path d="M359.988 262.13V235.937V234.853L360.834 235.531L411.162 275.877L411.669 276.283L411.162 276.689L360.834 317.036L359.988 317.714V316.629V290.437H176.853C118.823 290.437 68.1934 249.167 56.4575 192.309L359.988 262.13ZM359.988 262.13H176.853C124.63 262.13 82.1449 219.558 82.1449 167.222C82.1449 114.886 124.63 72.313 176.853 72.313C229.076 72.313 271.561 114.886 271.561 167.222C271.561 201.766 252.993 231.968 225.39 248.565L223.782 249.532H225.658H268.021H268.254L268.409 249.358C282.869 233.184 292.842 213.572 297.235 192.377L297.235 192.377L298.027 188.543L319.827 182.892L320.216 182.791V182.388V152.076V151.671L319.824 151.571L298.054 146.048L297.256 142.182C294.14 127.067 288.204 112.759 279.611 99.6587L279.176 99.9441L279.611 99.6586L277.45 96.3656L288.983 76.9732L289.19 76.6257L288.904 76.3396L267.532 54.9226L267.245 54.6352L266.897 54.8434L247.547 66.4068L244.262 64.2418L244.262 64.2417C231.189 55.6311 216.911 49.6819 201.827 46.56C201.827 46.56 201.827 46.56 201.827 46.56L197.97 45.7605L192.465 23.9507L192.366 23.5576H191.96H161.739H161.334L161.234 23.9507L155.73 45.7673L151.873 46.5668C151.872 46.5668 151.872 46.5668 151.872 46.5669C136.788 49.6887 122.511 55.6379 109.437 64.2485L109.437 64.2486L106.153 66.4136L86.8025 54.8503L86.454 54.642L86.1672 54.9294L64.7952 76.3464L64.5096 76.6325L64.7162 76.98L76.2495 96.3724L74.0881 99.6654L74.088 99.6656C65.4956 112.766 59.559 127.073 56.4438 142.189C56.4438 142.189 56.4438 142.189 56.4438 142.189L55.6458 146.055L33.8823 151.571L33.4898 151.671V152.076V182.374V182.778L33.8811 182.879L55.6595 188.456L56.4574 192.309L359.988 262.13ZM347.425 208.652L431.785 276.283L347.425 343.915V303.549V303.028H346.904H176.853H7.32242V249.538H68.1768H69.2206L68.5925 248.705C57.6619 234.2 49.4906 217.414 45.0866 199.028L45.0135 198.723L44.7095 198.645L20.9265 192.563V141.874L44.688 135.853L44.9929 135.776L45.0662 135.47C48.3659 121.7 53.8135 108.581 61.2948 96.3716L61.4589 96.1037L61.2983 95.8337L48.7036 74.6619L84.4814 38.8155L105.607 51.429L105.878 51.5908L106.147 51.4253C118.331 43.9217 131.414 38.4696 145.155 35.163L145.461 35.0894L145.538 34.7845L151.553 10.9657H202.146L208.162 34.7709L208.239 35.0758L208.544 35.1494C222.285 38.4559 235.369 43.9149 247.553 51.4118L247.822 51.5771L248.092 51.4154L269.218 38.8019L304.996 74.6483L292.401 95.82L292.24 96.0901L292.405 96.358C299.893 108.575 305.333 121.686 308.633 135.456L308.706 135.762L309.011 135.839L332.78 141.868V192.544L308.975 198.714L308.672 198.792L308.599 199.096C304.283 217.082 296.268 233.929 285.188 248.706L284.564 249.538H285.604H346.904H347.425V249.018V208.652ZM19.8857 289.916V290.437H20.4061H117.995L118.222 289.448C104.121 282.617 91.334 273.409 80.3763 262.286L80.2234 262.13H80.0056H20.4061H19.8857V262.651V289.916ZM94.7082 167.222C94.7082 212.612 131.556 249.538 176.853 249.538C222.151 249.538 258.998 212.612 258.998 167.222C258.998 121.831 222.151 84.9049 176.853 84.9049C131.556 84.9049 94.7082 121.831 94.7082 167.222Z" fill="#4DC4E3" stroke="white" stroke-width="1.04083"/>
<path d="M110.274 156.01C111.045 151.419 112.288 146.897 113.982 142.553L125.647 147.224C124.298 150.704 123.301 154.32 122.687 157.986L110.274 156.01Z" fill="#4DC4E3" stroke="white" stroke-width="1.04083"/>
<path d="M123.984 182.25L111.929 185.788C110.651 181.308 109.847 176.684 109.523 172.021L122.061 171.247C122.329 174.971 122.975 178.669 123.984 182.25Z" fill="#4DC4E3" stroke="white" stroke-width="1.04083"/>
<path d="M135.559 203.518L126.199 211.917C123.128 208.423 120.411 204.605 118.112 200.55L129.086 194.419C130.927 197.662 133.104 200.718 135.559 203.518Z" fill="#4DC4E3" stroke="white" stroke-width="1.04083"/>
<path d="M183.135 148.016V148.382L183.48 148.506C191.18 151.257 196.739 158.566 196.739 167.21C196.739 170.273 195.991 173.141 194.742 175.744L194.583 176.076L194.843 176.337L214.937 196.473L206.054 205.375L185.962 185.24L185.701 184.979L185.368 185.139C182.77 186.391 179.909 187.139 176.853 187.139C165.891 187.139 156.967 178.198 156.967 167.21C156.967 158.566 162.526 151.257 170.226 148.506L170.571 148.382V148.016V99.5673H183.135V148.016ZM169.53 167.21C169.53 171.253 172.817 174.547 176.853 174.547C180.889 174.547 184.175 171.253 184.175 167.21C184.175 163.168 180.889 159.874 176.853 159.874C172.817 159.874 169.53 163.168 169.53 167.21Z" fill="#4DC4E3" stroke="white" stroke-width="1.04083"/>
</g>
<defs>
<clipPath id="clip0_460_6836">
<rect width="435.331" height="370.666" fill="white"/>
</clipPath>
</defs>
</svg>
