<svg width="467" height="325" viewBox="0 0 467 325" fill="none" xmlns="http://www.w3.org/2000/svg">
<path d="M208.814 160.252H190.27C189.42 160.276 188.573 160.129 187.781 159.821C186.988 159.513 186.266 159.05 185.656 158.459C185.046 157.867 184.561 157.16 184.23 156.379C183.899 155.598 183.729 154.758 183.729 153.91C183.729 153.062 183.899 152.222 184.23 151.441C184.561 150.66 185.046 149.953 185.656 149.361C186.266 148.77 186.988 148.307 187.781 147.999C188.573 147.691 189.42 147.545 190.27 147.568H208.814C209.664 147.545 210.511 147.691 211.303 147.999C212.096 148.307 212.818 148.77 213.428 149.361C214.038 149.953 214.523 150.66 214.854 151.441C215.185 152.222 215.355 153.062 215.355 153.91C215.355 154.758 215.185 155.598 214.854 156.379C214.523 157.16 214.038 157.867 213.428 158.459C212.818 159.05 212.096 159.513 211.303 159.821C210.511 160.129 209.664 160.276 208.814 160.252ZM178.083 153.908C178.084 155.588 177.416 157.2 176.226 158.39C175.036 159.579 173.421 160.249 171.735 160.252H77.6726C76.1469 165.29 72.8558 169.613 68.3997 172.432C63.9435 175.252 58.6193 176.38 53.3984 175.611C48.1774 174.842 43.4077 172.228 39.9592 168.244C36.5108 164.26 34.6135 159.173 34.6135 153.91C34.6135 148.647 36.5108 143.56 39.9592 139.576C43.4077 135.593 48.1774 132.978 53.3984 132.209C58.6193 131.44 63.9435 132.568 68.3997 135.388C72.8558 138.207 76.1469 142.53 77.6726 147.568H171.735C173.42 147.571 175.034 148.24 176.224 149.429C177.414 150.617 178.083 152.228 178.083 153.908ZM65.8972 153.908C65.8972 152.078 65.3533 150.29 64.3341 148.769C63.315 147.249 61.8665 146.063 60.1718 145.363C58.477 144.663 56.6122 144.48 54.8131 144.837C53.014 145.194 51.3614 146.075 50.0643 147.368C48.7672 148.661 47.8839 150.309 47.526 152.103C47.1681 153.897 47.3518 155.757 48.0538 157.447C48.7558 159.137 49.9445 160.581 51.4697 161.597C52.995 162.614 54.7881 163.156 56.6225 163.156C59.0811 163.152 61.4378 162.176 63.1763 160.443C64.9148 158.709 65.8932 156.359 65.8972 153.908ZM227.359 160.252H245.908C247.564 160.205 249.136 159.517 250.291 158.333C251.446 157.148 252.092 155.562 252.092 153.91C252.092 152.258 251.446 150.672 250.291 149.488C249.136 148.303 247.564 147.615 245.908 147.568H227.359C225.703 147.615 224.131 148.303 222.976 149.488C221.821 150.672 221.175 152.258 221.175 153.91C221.175 155.562 221.821 157.148 222.976 158.333C224.131 159.517 225.703 160.205 227.359 160.252ZM178.083 48.7856C178.084 50.4659 177.416 52.0781 176.226 53.2677C175.036 54.4573 173.421 55.1271 171.735 55.1297H77.6726C76.1469 60.1676 72.8558 64.4907 68.3997 67.3104C63.9435 70.13 58.6193 71.2583 53.3984 70.4893C48.1774 69.7204 43.4077 67.1055 39.9592 63.1217C36.5108 59.1379 34.6135 54.0507 34.6135 48.7881C34.6135 43.5254 36.5108 38.4382 39.9592 34.4544C43.4077 30.4706 48.1774 27.8557 53.3984 27.0868C58.6193 26.3178 63.9435 27.4461 68.3997 30.2657C72.8558 33.0854 76.1469 37.4085 77.6726 42.4464H171.735C173.42 42.449 175.034 43.1181 176.224 44.3066C177.414 45.4952 178.083 47.106 178.083 48.7856ZM65.8972 48.7856C65.8972 46.9564 65.3533 45.1683 64.3341 43.6474C63.315 42.1265 61.8665 40.9412 60.1718 40.2412C58.477 39.5412 56.6122 39.358 54.8131 39.7149C53.014 40.0717 51.3614 40.9526 50.0643 42.246C48.7672 43.5394 47.8839 45.1873 47.526 46.9813C47.1681 48.7753 47.3518 50.6348 48.0538 52.3247C48.7558 54.0147 49.9445 55.4591 51.4697 56.4753C52.995 57.4915 54.7881 58.0339 56.6225 58.0339C59.0811 58.0299 61.4378 57.0543 63.1763 55.3207C64.9148 53.5872 65.8932 51.2372 65.8972 48.7856ZM245.908 42.4464H227.359C225.703 42.4928 224.131 43.1813 222.976 44.3655C221.821 45.5497 221.175 47.1363 221.175 48.7881C221.175 50.4398 221.821 52.0264 222.976 53.2106C224.131 54.3948 225.703 55.0833 227.359 55.1297H245.908C247.564 55.0833 249.136 54.3948 250.291 53.2106C251.446 52.0264 252.092 50.4398 252.092 48.7881C252.092 47.1363 251.446 45.5497 250.291 44.3655C249.136 43.1813 247.564 42.4928 245.908 42.4464ZM208.814 42.4464H190.27C189.42 42.4226 188.573 42.569 187.781 42.8769C186.988 43.1849 186.266 43.6482 185.656 44.2395C185.046 44.8307 184.561 45.5379 184.23 46.3191C183.899 47.1004 183.729 47.9399 183.729 48.7881C183.729 49.6362 183.899 50.4757 184.23 51.257C184.561 52.0382 185.046 52.7454 185.656 53.3366C186.266 53.9279 186.988 54.3912 187.781 54.6992C188.573 55.0071 189.42 55.1535 190.27 55.1297H208.814C209.664 55.1535 210.511 55.0071 211.303 54.6992C212.096 54.3912 212.818 53.9279 213.428 53.3366C214.038 52.7454 214.523 52.0382 214.854 51.257C215.185 50.4757 215.355 49.6362 215.355 48.7881C215.355 47.9399 215.185 47.1004 214.854 46.3191C214.523 45.5379 214.038 44.8307 213.428 44.2395C212.818 43.6482 212.096 43.1849 211.303 42.8769C210.511 42.569 209.664 42.4226 208.814 42.4464ZM300.658 29.1572H272.668C271.818 29.1333 270.971 29.2797 270.179 29.5877C269.386 29.8957 268.664 30.359 268.054 30.9503C267.444 31.5415 266.959 32.2486 266.628 33.0299C266.297 33.8112 266.127 34.6507 266.127 35.4988C266.127 36.347 266.297 37.1865 266.628 37.9678C266.959 38.749 267.444 39.4562 268.054 40.0474C268.664 40.6386 269.386 41.102 270.179 41.4099C270.971 41.7179 271.818 41.8643 272.668 41.8405H300.673C301.523 41.8643 302.369 41.7179 303.162 41.4099C303.954 41.102 304.677 40.6386 305.287 40.0474C305.896 39.4562 306.381 38.749 306.712 37.9678C307.043 37.1865 307.214 36.347 307.214 35.4988C307.214 34.6507 307.043 33.8112 306.712 33.0299C306.381 32.2486 305.896 31.5415 305.287 30.9503C304.677 30.359 303.954 29.8957 303.162 29.5877C302.369 29.2797 301.523 29.1333 300.673 29.1572H300.658ZM300.658 55.7306H272.668C271.818 55.7068 270.971 55.8532 270.179 56.1612C269.386 56.4691 268.664 56.9324 268.054 57.5237C267.444 58.1149 266.959 58.8221 266.628 59.6033C266.297 60.3846 266.127 61.2241 266.127 62.0723C266.127 62.9204 266.297 63.7599 266.628 64.5412C266.959 65.3224 267.444 66.0296 268.054 66.6208C268.664 67.2121 269.386 67.6754 270.179 67.9834C270.971 68.2914 271.818 68.4378 272.668 68.4139H300.673C301.523 68.4378 302.369 68.2914 303.162 67.9834C303.954 67.6754 304.677 67.2121 305.287 66.6208C305.896 66.0296 306.381 65.3224 306.712 64.5412C307.043 63.7599 307.214 62.9204 307.214 62.0723C307.214 61.2241 307.043 60.3846 306.712 59.6033C306.381 58.8221 305.896 58.1149 305.287 57.5237C304.677 56.9324 303.954 56.4691 303.162 56.1612C302.369 55.8532 301.523 55.7068 300.673 55.7306H300.658ZM467 277.011C466.987 289.734 461.912 301.933 452.889 310.93C443.867 319.926 431.634 324.987 418.874 325H213.916C206.885 325 199.94 323.461 193.57 320.491C187.201 317.522 181.562 313.195 177.053 307.815H23.7417C17.447 307.809 11.4121 305.312 6.96112 300.874C2.51013 296.435 0.00664624 290.418 0 284.141V233.913C0.00664624 227.636 2.51013 221.619 6.96112 217.18C11.4121 212.742 17.447 210.246 23.7417 210.239H51.2947V202.698H23.7417C17.4474 202.69 11.4133 200.193 6.96258 195.755C2.51188 191.317 0.00797244 185.3 0 179.024V128.796C0.00664624 122.519 2.51013 116.502 6.96112 112.063C11.4121 107.625 17.447 105.129 23.7417 105.122H51.2947V97.5761H23.7417C17.447 97.5695 11.4121 95.0731 6.96112 90.6348C2.51013 86.1964 0.00664624 80.1786 0 73.9019V23.6742C0.00664624 17.3975 2.51013 11.3797 6.96112 6.94135C11.4121 2.503 17.447 0.00662736 23.7417 0H317.901C324.196 0.00662736 330.231 2.503 334.682 6.94135C339.133 11.3797 341.637 17.3975 341.643 23.6742V73.9019C341.637 80.1786 339.133 86.1964 334.682 90.6348C330.231 95.0731 324.196 97.5695 317.901 97.5761H290.348V105.122H317.901C323.673 105.115 329.246 107.217 333.569 111.031H361.403C362.308 111.031 363.202 111.224 364.026 111.596C364.851 111.968 365.586 112.511 366.183 113.189C373.715 121.761 385.024 130.043 393.254 129.212C394.141 129.118 395.038 129.212 395.886 129.487C396.734 129.761 397.515 130.21 398.178 130.805C398.841 131.4 399.371 132.128 399.734 132.94C400.097 133.752 400.284 134.632 400.284 135.521V189.679C400.284 190.761 400.234 191.807 400.154 192.824C407.323 196.34 413.532 201.536 418.25 207.966C422.967 214.396 426.054 221.869 427.245 229.747C438.378 231.724 448.461 237.541 455.728 246.181C462.996 254.821 466.985 265.734 467 277.011ZM358.601 123.714H334.899C329.602 129.282 318.434 139.457 305.96 141.565V189.679C305.96 202.353 313.864 208.036 333.338 220.779C337.42 223.448 341.934 226.407 346.75 229.737C351.566 226.407 356.08 223.453 360.157 220.779C379.636 208.036 387.54 202.353 387.54 189.679V141.565C375.066 139.467 363.898 129.282 358.601 123.714ZM277.629 97.5761H233.721V105.122H277.629V97.5761ZM120.647 97.5761V105.122H221.001V97.5761H120.647ZM23.7417 84.8877H317.901C320.819 84.8772 323.614 83.716 325.677 81.6578C327.739 79.5995 328.901 76.8113 328.909 73.9019V23.6742C328.909 20.757 327.748 17.9588 325.682 15.8936C323.615 13.8285 320.812 12.6649 317.886 12.6583H23.7417C20.8161 12.6649 18.0126 13.8285 15.9463 15.8936C13.8799 17.9588 12.7195 20.757 12.7195 23.6742V73.9019C12.7274 76.8139 13.8914 79.6044 15.9569 81.6631C18.0224 83.7217 20.8213 84.8811 23.7417 84.8877ZM64.0142 105.117H107.927V97.5761H64.0142V105.117ZM23.7417 190.01H214.524C222.963 177.619 235.161 168.249 249.33 163.274C263.498 158.3 278.892 157.981 293.256 162.365V146.978H272.668C271.818 147.001 270.971 146.855 270.179 146.547C269.386 146.239 268.664 145.776 268.054 145.184C267.444 144.593 266.959 143.886 266.628 143.105C266.297 142.324 266.127 141.484 266.127 140.636C266.127 139.788 266.297 138.948 266.628 138.167C266.959 137.386 267.444 136.679 268.054 136.087C268.664 135.496 269.386 135.033 270.179 134.725C270.971 134.417 271.818 134.27 272.668 134.294H293.386C293.693 132.747 294.568 131.371 295.84 130.433C297.111 129.496 298.688 129.066 300.261 129.227C306.709 129.873 315.049 124.921 321.994 118.617C320.698 118.094 319.314 117.824 317.917 117.82H23.7417C20.8161 117.827 18.0126 118.991 15.9463 121.056C13.8799 123.121 12.7195 125.919 12.7195 128.836V179.024C12.7274 181.936 13.8914 184.726 15.9569 186.785C18.0224 188.844 20.8213 190.003 23.7417 190.01ZM207.694 202.698H120.647V210.239H205.063C205.796 207.678 206.675 205.16 207.694 202.698ZM64.0142 210.239H107.927V202.698H64.0142V210.239ZM169.38 295.132C165.506 285.691 164.758 275.263 167.246 265.369H77.6726C76.1471 270.402 72.8577 274.722 68.4045 277.539C63.9513 280.355 58.631 281.482 53.4141 280.713C48.1972 279.944 43.4312 277.331 39.9856 273.35C36.54 269.369 34.6443 264.286 34.6443 259.027C34.6443 253.768 36.54 248.685 39.9856 244.704C43.4312 240.723 48.1972 238.11 53.4141 237.341C58.631 236.572 63.9513 237.699 68.4045 240.516C72.8577 243.332 76.1471 247.652 77.6726 252.685H171.735C171.974 252.688 172.212 252.703 172.449 252.73C175.694 247.214 180.013 242.4 185.151 238.571C190.288 234.742 196.142 231.975 202.367 230.433C202.342 227.926 202.451 225.418 202.693 222.922H23.7417C20.8161 222.929 18.0126 224.093 15.9463 226.158C13.8799 228.223 12.7195 231.021 12.7195 233.938V284.141C12.7261 287.054 13.8895 289.846 15.9551 291.905C18.0208 293.965 20.8204 295.125 23.7417 295.132H169.38ZM65.8972 259.03C65.8972 257.2 65.3533 255.412 64.3341 253.891C63.315 252.371 61.8665 251.185 60.1718 250.485C58.477 249.785 56.6122 249.602 54.8131 249.959C53.014 250.316 51.3614 251.197 50.0643 252.49C48.7672 253.783 47.8839 255.431 47.526 257.225C47.1681 259.019 47.3518 260.879 48.0538 262.569C48.7558 264.259 49.9445 265.703 51.4697 266.719C52.995 267.736 54.7881 268.278 56.6225 268.278C59.0815 268.275 61.439 267.3 63.1778 265.566C64.9165 263.832 65.8946 261.482 65.8972 259.03ZM454.281 277.011C454.271 268.017 450.823 259.366 444.641 252.819C438.458 246.271 430.005 242.32 421.003 241.77C419.429 241.675 417.947 241.002 416.843 239.88C415.739 238.758 415.092 237.267 415.027 235.696C414.784 229.497 412.969 223.461 409.751 218.152C406.534 212.843 402.019 208.434 396.629 205.337C391.296 215.567 380.51 222.632 367.137 231.375C362.116 234.654 356.452 238.385 350.441 242.641C349.363 243.406 348.073 243.817 346.75 243.817C345.427 243.817 344.137 243.406 343.059 242.641C337.033 238.37 331.369 234.654 326.358 231.375C307.135 218.791 293.216 209.698 293.216 189.669V175.749C282.387 171.63 270.565 170.859 259.292 173.539C248.018 176.219 237.816 182.224 230.015 190.771C224.611 196.719 220.511 203.727 217.977 211.345C215.442 218.963 214.53 227.025 215.297 235.015C215.456 236.664 214.961 238.31 213.918 239.601C212.876 240.891 211.368 241.723 209.718 241.92C200.694 242.915 192.398 247.329 186.544 254.25C180.691 261.171 177.727 270.07 178.266 279.108C178.805 288.145 182.805 296.631 189.44 302.812C196.075 308.992 204.837 312.395 213.916 312.317H418.874C428.261 312.306 437.261 308.583 443.898 301.964C450.536 295.345 454.27 286.371 454.281 277.011ZM322.155 166.851C321.564 167.44 321.095 168.139 320.776 168.908C320.456 169.678 320.291 170.502 320.291 171.335C320.291 172.168 320.456 172.993 320.776 173.762C321.095 174.532 321.564 175.231 322.155 175.819L336.943 190.586C337.533 191.175 338.234 191.642 339.006 191.961C339.778 192.28 340.605 192.444 341.44 192.444C342.275 192.444 343.102 192.28 343.874 191.961C344.645 191.642 345.346 191.175 345.937 190.586L375.302 161.298C376.495 160.109 377.165 158.496 377.165 156.814C377.165 155.132 376.495 153.52 375.302 152.33C374.11 151.141 372.492 150.473 370.806 150.473C369.119 150.473 367.501 151.141 366.309 152.33L341.462 177.131L331.158 166.861C330.568 166.271 329.866 165.802 329.094 165.482C328.321 165.163 327.493 164.998 326.656 164.998C325.82 164.998 324.992 165.163 324.219 165.482C323.447 165.802 322.745 166.271 322.155 166.861V166.851Z" fill="#4DC4E3"/>
</svg>
