<svg width="451" height="401" viewBox="0 0 451 401" fill="none" xmlns="http://www.w3.org/2000/svg">
<path d="M215.295 272.758H194.351C190.967 272.758 188.287 275.508 188.287 278.822C188.287 282.207 191.037 284.887 194.351 284.887H215.295C218.68 284.887 221.359 282.137 221.359 278.822C221.43 275.437 218.68 272.758 215.295 272.758Z" fill="#4DC4E3"/>
<path d="M51.7662 157.635H179.402C186.383 157.635 192.095 151.924 192.095 144.942V48.1227C192.095 41.1416 186.383 35.4297 179.402 35.4297H51.7662C44.7851 35.4297 39.0732 41.1416 39.0732 48.1227V144.942C39.0732 151.924 44.7851 157.635 51.7662 157.635ZM51.2726 48.1227C51.2726 47.8407 51.4842 47.6291 51.7662 47.6291H179.402C179.684 47.6291 179.895 47.8407 179.895 48.1227V144.942C179.895 145.224 179.684 145.436 179.402 145.436H51.7662C51.4842 145.436 51.2726 145.224 51.2726 144.942V48.1227Z" fill="#4DC4E3"/>
<path d="M96.897 132.417C97.8137 132.911 98.7304 133.123 99.7177 133.123C101.904 133.123 104.019 131.924 105.147 129.879L136.951 68.8112C138.502 65.8495 137.374 62.1826 134.341 60.6312C131.38 59.0799 127.713 60.2081 126.161 63.2404L94.3584 124.308C92.7365 127.199 93.8648 130.866 96.897 132.417Z" fill="#4DC4E3"/>
<path d="M137.938 103.901L148.304 114.267L137.938 124.633C135.54 127.031 135.54 130.839 137.938 133.236C139.137 134.435 140.688 134.999 142.239 134.999C143.791 134.999 145.342 134.435 146.541 133.236L161.209 118.569C163.606 116.171 163.606 112.363 161.209 109.966L146.541 95.2982C144.143 92.9006 140.336 92.9006 137.938 95.2982C135.54 97.6958 135.54 101.574 137.938 103.901Z" fill="#4DC4E3"/>
<path d="M84.6271 97.6972C85.8259 98.896 87.3773 99.4601 88.9286 99.4601C90.48 99.4601 92.0314 98.896 93.2302 97.6972C95.6277 95.2996 95.6277 91.4917 93.2302 89.0941L82.8642 78.7282L93.2302 68.3622C95.6277 65.9646 95.6277 62.1567 93.2302 59.7591C90.8326 57.3615 87.0247 57.3615 84.6271 59.7591L69.9596 74.4266C67.562 76.8242 67.562 80.6321 69.9596 83.0297L84.6271 97.6972Z" fill="#4DC4E3"/>
<path d="M235.11 84.7915H352.662C356.046 84.7915 358.726 82.0413 358.726 78.727V41.4941C358.726 38.1093 355.976 35.4297 352.662 35.4297H235.11C231.725 35.4297 229.046 38.1798 229.046 41.4941V78.727C229.046 82.0413 231.796 84.7915 235.11 84.7915ZM241.245 47.5586H346.597V72.5921H241.245V47.5586Z" fill="#4DC4E3"/>
<path d="M217.34 122.27H364.509C367.893 122.27 370.573 119.519 370.573 116.205C370.573 112.82 367.823 110.141 364.509 110.141H217.34C213.955 110.141 211.275 112.891 211.275 116.205C211.275 119.59 213.955 122.27 217.34 122.27Z" fill="#4DC4E3"/>
<path d="M217.34 153.379H364.509C367.893 153.379 370.573 150.629 370.573 147.314C370.573 143.93 367.823 141.25 364.509 141.25H217.34C213.955 141.25 211.275 144 211.275 147.314C211.275 150.629 213.955 153.379 217.34 153.379Z" fill="#4DC4E3"/>
<path d="M217.34 184.402H364.509C367.893 184.402 370.573 181.652 370.573 178.338C370.573 174.953 367.823 172.273 364.509 172.273H217.34C213.955 172.273 211.275 175.024 211.275 178.338C211.275 181.652 213.955 184.402 217.34 184.402Z" fill="#4DC4E3"/>
<path d="M217.34 215.418H283.344C286.728 215.418 289.408 212.668 289.408 209.354C289.408 205.969 286.658 203.289 283.344 203.289H217.34C213.955 203.289 211.275 206.039 211.275 209.354C211.275 212.668 213.955 215.418 217.34 215.418Z" fill="#4DC4E3"/>
<path d="M45.2083 184.402H175.876C179.261 184.402 181.94 181.652 181.94 178.338C181.94 174.953 179.19 172.273 175.876 172.273H45.2083C41.8235 172.273 39.1438 175.024 39.1438 178.338C39.0733 181.652 41.8235 184.402 45.2083 184.402Z" fill="#4DC4E3"/>
<path d="M45.2083 215.418H175.876C179.261 215.418 181.94 212.668 181.94 209.354C181.94 205.969 179.19 203.289 175.876 203.289H45.2083C41.8235 203.289 39.1438 206.039 39.1438 209.354C39.0733 212.668 41.8235 215.418 45.2083 215.418Z" fill="#4DC4E3"/>
<path d="M442.853 263.733L431.993 260.207C430.442 254.566 428.256 249.277 425.365 244.2L430.583 234.045C432.769 229.814 431.993 224.667 428.608 221.282L421.627 214.301C418.242 210.916 413.095 210.14 408.864 212.326L408.723 212.397V28.7709C408.723 12.9046 395.818 0 379.952 0H29.765C13.8987 0 0.994141 12.9046 0.994141 28.7709V290.106C0.994141 305.973 13.8987 318.877 29.765 318.877H132.649V356.11H119.392C105.359 356.11 93.9353 367.534 93.9353 381.567V388.266H80.3256C76.9408 388.266 74.2611 391.016 74.2611 394.33C74.2611 397.715 77.0113 400.395 80.3256 400.395H329.321C332.705 400.395 335.385 397.644 335.385 394.33C335.385 390.945 332.635 388.266 329.321 388.266H315.711V381.567C315.711 367.534 304.287 356.11 290.254 356.11H276.997V318.877H299.774L297.094 324.166C294.908 328.397 295.755 333.545 299.139 336.929L306.121 343.911C309.505 347.295 314.653 348.071 318.884 345.956L329.039 340.808C334.116 343.699 339.475 345.885 345.046 347.436L348.572 358.226C350.052 362.809 354.213 365.841 359.008 365.841H368.88C373.676 365.841 377.836 362.809 379.317 358.226L382.843 347.436C388.484 345.885 393.843 343.629 398.85 340.808L409.005 346.026C413.236 348.212 418.383 347.366 421.768 343.981L428.749 337C432.134 333.615 432.98 328.467 430.794 324.236L425.576 314.082C428.467 309.075 430.653 303.716 432.205 298.075L443.064 294.549C447.577 293.068 450.68 288.908 450.68 284.112V274.24C450.469 269.445 447.436 265.214 442.853 263.733ZM303.582 381.567V388.266H106.135V381.567C106.135 374.233 112.129 368.239 119.462 368.239H290.325C297.588 368.239 303.582 374.233 303.582 381.567ZM29.765 12.1289H379.952C389.119 12.1289 396.594 19.6037 396.594 28.7709V216.557C392.222 214.23 387.638 212.326 382.772 210.986L379.246 200.127C377.766 195.543 373.605 192.511 368.81 192.511H358.938C354.142 192.511 349.982 195.543 348.501 200.127L344.975 210.986C339.334 212.538 333.975 214.794 329.039 217.615L318.884 212.397C314.653 210.211 309.505 210.986 306.121 214.371L299.139 221.352C295.755 224.737 294.979 229.885 297.094 234.116L299.492 238.77H13.123V28.7709C13.123 19.6037 20.5978 12.1289 29.765 12.1289ZM13.123 290.106V250.969H299.069C297.729 254.002 296.601 257.104 295.684 260.278L284.824 263.803C280.311 265.284 277.209 269.445 277.209 274.24V284.112C277.209 288.908 280.241 293.068 284.824 294.549L295.613 298.004C296.46 300.966 297.447 303.857 298.646 306.678H29.765C20.5978 306.678 13.123 299.273 13.123 290.106ZM264.868 356.11H144.778V318.877H264.868V356.11ZM438.34 283.196L425.082 287.427C423.037 288.061 421.486 289.754 420.992 291.869C419.512 298.498 416.902 304.774 413.306 310.415C412.107 312.249 412.037 314.505 413.024 316.48L419.371 328.891L413.588 334.673L401.177 328.326C399.273 327.339 396.946 327.48 395.113 328.608C389.471 332.205 383.266 334.814 376.637 336.295C374.522 336.788 372.829 338.34 372.195 340.385L367.893 353.571H359.713L355.412 340.385C354.777 338.34 353.014 336.788 350.969 336.295C344.411 334.884 338.206 332.275 332.423 328.608C330.59 327.48 328.333 327.339 326.429 328.326L314.018 334.673L308.236 328.891L314.583 316.48C315.147 315.422 315.288 314.223 315.147 313.095C315.147 312.954 315.217 312.883 315.217 312.742C315.217 310.838 314.3 309.216 312.89 308.088C309.999 303.011 307.813 297.581 306.614 291.94C306.121 289.824 304.569 288.132 302.524 287.427L289.267 283.196V275.016L302.524 270.714C304.569 270.079 306.121 268.387 306.614 266.272C308.095 259.572 310.704 253.367 314.3 247.796C315.499 245.963 315.57 243.636 314.583 241.732L308.236 229.321L314.018 223.538L326.429 229.885C328.333 230.872 330.66 230.731 332.494 229.603C338.135 226.006 344.341 223.397 350.969 221.917C353.085 221.423 354.777 219.872 355.412 217.827L359.713 204.569H367.893L372.195 217.827C372.829 219.872 374.592 221.423 376.637 221.917C383.266 223.397 389.471 225.936 395.113 229.603C396.946 230.802 399.273 230.872 401.177 229.885L413.588 223.538L419.371 229.321L413.024 241.732C412.037 243.636 412.178 245.963 413.306 247.796C416.902 253.438 419.512 259.643 420.992 266.272C421.486 268.387 423.037 270.079 425.082 270.785L438.34 275.086V283.196Z" fill="#4DC4E3"/>
<path d="M363.874 238.492C341.45 238.492 323.256 256.686 323.256 279.11C323.256 301.534 341.52 319.728 363.874 319.728C386.298 319.728 404.492 301.464 404.492 279.11C404.492 256.756 386.298 238.492 363.874 238.492ZM363.874 307.599C348.149 307.599 335.385 294.835 335.385 279.11C335.385 263.385 348.149 250.621 363.874 250.621C379.599 250.621 392.363 263.385 392.363 279.11C392.363 294.835 379.599 307.599 363.874 307.599Z" fill="#4DC4E3"/>
</svg>
