<svg width="401" height="401" viewBox="0 0 401 401" fill="none" xmlns="http://www.w3.org/2000/svg">
<path d="M321.831 232.43V233.418H322.819H393.84C396.864 233.418 399.308 235.867 399.308 238.886V393.84C399.308 396.858 396.864 399.308 393.84 399.308H238.886C235.862 399.308 233.418 396.858 233.418 393.84V322.819V321.831H232.43H161.41C158.385 321.831 155.941 319.382 155.941 316.363V232.43V231.442H154.953H117.203V220.505H284.081H285.069V219.517V64.5639V63.5759H284.081H12.9128H11.9249V64.5639V219.517V220.505H12.9128H63.5759V231.442H6.45639C3.43226 231.442 0.987916 228.992 0.987916 225.973V6.45639C0.987916 3.43743 3.43226 0.987916 6.45639 0.987916H290.537C293.561 0.987916 296.006 3.43743 296.006 6.45639V154.953V155.941H296.994H316.363C319.387 155.941 321.831 158.391 321.831 161.41V232.43ZM322.819 270.18H321.831V271.168V316.363C321.831 319.382 319.387 321.831 316.363 321.831H271.168H270.18V322.819V361.558V362.545H271.168H361.558H362.545V361.558V271.168V270.18H361.558H322.819ZM11.9249 51.6511V52.639H12.9128H284.081H285.069V51.6511V12.9128V11.9249H284.081H12.9128H11.9249V12.9128V51.6511ZM167.866 231.442H166.878V232.43V309.906V310.894H167.866H309.906H310.894V309.906V167.866V166.878H309.906H296.994H296.006V167.866V225.973C296.006 228.992 293.561 231.442 290.537 231.442H167.866ZM387.383 388.371H388.371V387.383V245.343V244.355H387.383H322.819H321.831V245.343V258.255V259.243H322.819H368.014C371.038 259.243 373.482 261.693 373.482 264.712V368.014C373.482 371.033 371.038 373.482 368.014 373.482H264.712C261.688 373.482 259.243 371.033 259.243 368.014V322.819V321.831H258.255H245.343H244.355V322.819V387.383V388.371H245.343H387.383Z" fill="#4DC4E3" stroke="white" stroke-width="1.97583"/>
<path d="M26.8134 37.7374V26.8004H37.7503V37.7374H26.8134Z" fill="#4DC4E3" stroke="white" stroke-width="1.97583"/>
<path d="M52.6388 37.7374V26.8004H63.5757V37.7374H52.6388Z" fill="#4DC4E3" stroke="white" stroke-width="1.97583"/>
<path d="M78.4645 37.7374V26.8004H89.4014V37.7374H78.4645Z" fill="#4DC4E3" stroke="white" stroke-width="1.97583"/>
<path d="M104.29 37.7374V26.8004H115.227V37.7374H104.29Z" fill="#4DC4E3" stroke="white" stroke-width="1.97583"/>
<path d="M81.9585 142.739L82.6571 142.04L81.9585 141.342L39.4368 98.8201L37.7503 97.1336V99.5187V184.562V186.947L39.4368 185.261L81.9585 142.739ZM47.8675 89.4014H45.4825L47.169 91.0879L89.6907 133.61L90.3893 134.308L91.0878 133.61L133.61 91.0879L135.296 89.4014H132.911H47.8675ZM91.0878 150.471L90.3893 149.773L89.6907 150.471L47.169 192.993L45.4825 194.679H47.8675H132.911H135.296L133.61 192.993L91.0878 150.471ZM98.82 141.342L98.1215 142.04L98.82 142.739L141.342 185.261L143.028 186.947V184.562V99.5187V97.1336L141.342 98.8201L98.82 141.342ZM153.965 83.9329V200.148C153.965 203.167 151.521 205.616 148.497 205.616H32.2818C29.2577 205.616 26.8134 203.167 26.8134 200.148V83.9329C26.8134 80.914 29.2577 78.4645 32.2818 78.4645H148.497C151.521 78.4645 153.965 80.914 153.965 83.9329Z" fill="#4DC4E3" stroke="white" stroke-width="1.97583"/>
<path d="M168.854 128.144V117.207H270.18V128.144H168.854Z" fill="#4DC4E3" stroke="white" stroke-width="1.97583"/>
<path d="M168.854 153.964V143.027H270.18V153.964H168.854Z" fill="#4DC4E3" stroke="white" stroke-width="1.97583"/>
<path d="M168.854 179.8V168.863H270.18V179.8H168.854Z" fill="#4DC4E3" stroke="white" stroke-width="1.97583"/>
<path d="M168.854 205.62V194.683H270.18V205.62H168.854Z" fill="#4DC4E3" stroke="white" stroke-width="1.97583"/>
<path d="M87.7966 215.639L87.799 215.642L139.45 267.293C141.015 268.857 141.485 271.209 140.637 273.254L140.637 273.255C139.796 275.292 137.794 276.628 135.584 276.628H105.975H105.566L105.276 276.917L87.799 294.394C86.7546 295.439 85.3545 295.997 83.9329 295.997C83.2283 295.997 82.5171 295.86 81.8369 295.581C79.793 294.733 78.4645 292.737 78.4645 290.528V219.508C78.4645 217.299 79.7925 215.304 81.8359 214.456C83.8957 213.617 86.2448 214.077 87.7966 215.639ZM99.436 267.293L99.4379 267.291C100.458 266.265 101.846 265.691 103.302 265.691H119.998H122.383L120.697 264.004L91.0879 234.395L89.4014 232.709V235.094V274.942V277.328L91.0879 275.641L99.436 267.293Z" fill="#4DC4E3" stroke="white" stroke-width="1.97583"/>
</svg>
