<svg width="424" height="410" viewBox="0 0 424 410" fill="none" xmlns="http://www.w3.org/2000/svg">
<path d="M417.194 336.6H368.19V281.759C385.407 278.455 398.652 263.258 398.652 245.418C398.652 227.579 385.407 212.382 368.19 209.078V185.291C368.19 181.327 365.541 178.684 361.568 178.684H266.871L218.53 130.45V94.7702H306.604C310.577 94.7702 313.226 92.1272 313.226 88.1628V7.55269C313.226 3.58826 310.577 0.945312 306.604 0.945312H117.212C113.238 0.945312 110.589 3.58826 110.589 7.55269V88.8235C110.589 92.7879 113.238 95.4309 117.212 95.4309H205.286V131.111L156.944 179.345H62.2479C58.2747 179.345 55.6258 181.988 55.6258 185.952V209.739C38.4083 213.042 25.1641 228.239 25.1641 246.079C25.1641 263.919 38.4083 279.116 55.6258 282.42V337.261H6.62212C2.64885 337.261 0 339.904 0 343.868V403.335C0 407.299 2.64885 409.942 6.62212 409.942H117.874C121.847 409.942 124.496 407.299 124.496 403.335V343.868C124.496 339.904 121.847 337.261 117.874 337.261H68.8701V282.42C86.0876 279.116 99.3318 263.919 99.3318 246.079C99.3318 228.239 86.0876 213.042 68.8701 209.739V192.559H156.944L205.286 240.793V284.402H179.459C162.904 284.402 149.66 297.617 149.66 314.135C149.66 330.654 162.904 343.868 179.459 343.868H244.356C260.912 343.868 274.156 330.654 274.156 314.135C274.156 297.617 260.912 284.402 244.356 284.402H218.53V240.793L266.871 192.559H354.946V209.739C337.728 213.042 324.484 228.239 324.484 246.079C324.484 263.919 337.728 279.116 354.946 282.42V337.261H305.942C301.969 337.261 299.32 339.904 299.32 343.868V403.335C299.32 407.299 301.969 409.942 305.942 409.942H417.194C421.167 409.942 423.816 407.299 423.816 403.335V343.868C423.816 339.243 421.167 336.6 417.194 336.6ZM123.834 14.1601H300.644V82.2161H123.834V14.1601ZM111.252 396.067H13.2442V349.815H111.252V396.067ZM86.0876 245.418C86.0876 258.633 75.4922 269.205 62.2479 269.205C49.0037 269.205 38.4083 258.633 38.4083 245.418C38.4083 232.204 49.0037 221.632 62.2479 221.632C75.4922 221.632 86.0876 232.204 86.0876 245.418ZM260.912 313.475C260.912 322.725 253.627 329.993 244.356 329.993H179.459C170.189 329.993 162.904 322.725 162.904 313.475C162.904 304.224 170.189 296.956 179.459 296.956H244.356C253.627 296.956 260.912 304.224 260.912 313.475ZM211.908 228.239L169.526 185.952L211.908 143.665L254.289 185.952L211.908 228.239ZM337.728 245.418C337.728 232.204 348.324 221.632 361.568 221.632C374.812 221.632 385.407 232.204 385.407 245.418C385.407 258.633 374.812 269.205 361.568 269.205C348.324 269.205 337.728 258.633 337.728 245.418ZM410.572 396.067H312.564V349.815H410.572V396.067Z" fill="#4DC4E3"/>
<path d="M172.101 47.1719H144.021C140.102 47.1719 137.49 49.784 137.49 53.7023C137.49 57.6205 140.102 60.2327 144.021 60.2327H172.101C176.02 60.2327 178.632 57.6205 178.632 53.7023C178.632 49.784 176.02 47.1719 172.101 47.1719Z" fill="#4DC4E3"/>
<path d="M232.834 53.7023C232.834 49.784 230.222 47.1719 226.304 47.1719H198.223C194.305 47.1719 191.693 49.784 191.693 53.7023C191.693 57.6205 194.305 60.2327 198.223 60.2327H226.304C229.569 60.2327 232.834 57.6205 232.834 53.7023Z" fill="#4DC4E3"/>
<path d="M251.772 60.2327H279.853C283.771 60.2327 286.383 57.6205 286.383 53.7023C286.383 49.784 283.771 47.1719 279.853 47.1719H251.772C247.854 47.1719 245.242 49.784 245.242 53.7023C245.242 57.6205 247.854 60.2327 251.772 60.2327Z" fill="#4DC4E3"/>
</svg>
