<svg width="580" height="426" viewBox="0 0 580 426" fill="none" xmlns="http://www.w3.org/2000/svg">
<path d="M254.805 323.576C252.443 316.961 248.689 300.151 264.858 286.903L277.578 276.486H12.5726V11.7506H428.685V108.493H440.435V0H0.822021V288.236H177.88C192.274 301.256 188.749 317.178 186.464 323.576C180.841 339.316 166.171 350.309 150.783 350.309H121.648V399.814H319.622V350.309H290.48C275.099 350.303 260.428 339.316 254.805 323.576ZM197.527 327.524C202.521 313.535 200.899 299.593 193.356 288.23H247.908C240.364 299.593 238.742 313.541 243.742 327.524C246.991 336.619 252.72 344.381 259.776 350.297H181.487C188.55 344.381 194.278 336.625 197.527 327.524ZM307.871 362.053V388.058H133.392V362.053H307.871Z" fill="#4DC4E3"/>
<path d="M86.108 256.497V163.039H34.2408V256.503L86.108 256.497ZM45.9914 174.79H74.3515V244.753H45.9914V174.79Z" fill="#4DC4E3"/>
<path d="M246.556 256.502V33.0469H194.695V256.502H246.556ZM206.446 44.7975H234.806V244.751H206.446V44.7975Z" fill="#4DC4E3"/>
<path d="M166.335 256.505V118.477H114.474V256.511L166.335 256.505ZM126.224 130.227H154.585V244.76H126.224V130.227Z" fill="#4DC4E3"/>
<path d="M355.156 256.497H407.011V163.039H355.156V256.497ZM366.906 174.79H395.26V244.753H366.906V174.79Z" fill="#4DC4E3"/>
<path d="M458.214 264.651L442.098 280.767L427.592 266.26C442.838 249.022 451.258 227.154 451.258 203.941C451.258 178.754 441.446 155.076 423.638 137.268C405.836 119.46 382.153 109.648 356.971 109.648C331.789 109.648 308.112 119.454 290.298 137.268C253.536 174.03 253.531 233.846 290.292 270.614C308.1 288.422 331.784 298.234 356.965 298.234C380.178 298.234 402.052 289.809 419.279 274.568L433.785 289.074L417.675 305.178L538.494 425.998L579.028 385.47L458.214 264.651ZM298.612 145.582C303.594 140.605 309.134 136.428 315.039 132.926V244.763H285.328C267.396 213.259 271.767 172.42 298.612 145.582ZM298.606 262.312C296.749 260.456 295.016 258.511 293.371 256.519H326.79V127.145C336.284 123.414 346.472 121.411 356.977 121.411C379.021 121.411 399.743 129.995 415.336 145.588C430.929 161.181 439.513 181.903 439.513 203.953C439.513 225.997 430.923 246.731 415.336 262.318C399.749 277.905 379.021 286.495 356.971 286.495C334.921 286.489 314.193 277.899 298.606 262.312ZM434.29 305.178L458.208 281.266L562.413 385.47L538.494 409.383L434.29 305.178Z" fill="#4DC4E3"/>
</svg>
